<svg width="62" height="48" viewBox="0 0 62 48" fill="none" xmlns="http://www.w3.org/2000/svg">
<path d="M4.63054 28C4.18784 28 3.77282 27.9078 3.38546 27.7233C3.01654 27.5204 2.83208 27.2253 2.83208 26.8379V8.90868C2.83208 8.5951 2.9612 8.32764 3.21944 8.10629C3.47768 7.88494 3.80971 7.77427 4.21551 7.77427H9.74923C10.9298 7.77427 11.9904 7.97717 12.9311 8.38297C13.8903 8.78878 14.6466 9.45283 15.1999 10.3751C15.7533 11.279 16.03 12.4871 16.03 13.9997V14.1657C16.03 15.6783 15.7441 16.8957 15.1723 17.818C14.6005 18.7402 13.8165 19.4135 12.8204 19.8378C11.8428 20.2436 10.7453 20.4465 9.52788 20.4465H6.429V26.8379C6.429 27.2253 6.24454 27.5204 5.87563 27.7233C5.50671 27.9078 5.09168 28 4.63054 28ZM6.429 17.6243H9.52788C10.4502 17.6243 11.1603 17.366 11.6584 16.8496C12.1748 16.3146 12.4331 15.5122 12.4331 14.4424V14.138C12.4331 13.0497 12.1748 12.2474 11.6584 11.7309C11.1603 11.1959 10.4502 10.9285 9.52788 10.9285H6.429V17.6243ZM18.0375 28C17.7055 28 17.3642 27.9354 17.0137 27.8063C16.6633 27.6772 16.3681 27.502 16.1284 27.2806C15.8886 27.0593 15.7687 26.801 15.7687 26.5059C15.7687 26.4506 15.7779 26.3583 15.7963 26.2292L21.1364 8.82567C21.2655 8.41987 21.5514 8.11551 21.9941 7.91261C22.4552 7.7097 22.944 7.60825 23.4605 7.60825C23.9955 7.60825 24.4843 7.7097 24.927 7.91261C25.3697 8.11551 25.6556 8.41987 25.7847 8.82567L31.1247 26.2292C31.1616 26.3583 31.1801 26.4506 31.1801 26.5059C31.1801 26.7826 31.0509 27.0408 30.7927 27.2806C30.5529 27.502 30.2578 27.6772 29.9073 27.8063C29.5568 27.9354 29.2156 28 28.8836 28C28.5884 28 28.3302 27.9539 28.1088 27.8617C27.9059 27.751 27.7676 27.5573 27.6938 27.2806L26.6424 23.6007H20.2786L19.2549 27.2806C19.1811 27.5573 19.0336 27.751 18.8122 27.8617C18.5909 27.9539 18.3326 28 18.0375 28ZM21.0534 20.7785H25.8677L23.4605 12.2842L21.0534 20.7785ZM39.625 28.166C38.3707 28.166 37.2455 27.9631 36.2495 27.5573C35.2534 27.1331 34.4602 26.4598 33.87 25.5375C33.2797 24.5968 32.9846 23.3517 32.9846 21.8022V8.90868C32.9846 8.50287 33.169 8.21696 33.5379 8.05095C33.9069 7.86649 34.3219 7.77427 34.783 7.77427C35.2257 7.77427 35.6315 7.86649 36.0004 8.05095C36.3878 8.21696 36.5815 8.50287 36.5815 8.90868V21.8022C36.5815 22.8905 36.8489 23.7021 37.3839 24.2371C37.9188 24.7536 38.6659 25.0118 39.625 25.0118C40.5658 25.0118 41.3036 24.7536 41.8385 24.2371C42.3919 23.7021 42.6686 22.8905 42.6686 21.8022V8.90868C42.6686 8.50287 42.8438 8.21696 43.1943 8.05095C43.5632 7.86649 43.9874 7.77427 44.467 7.77427C44.9097 7.77427 45.3155 7.86649 45.6845 8.05095C46.0718 8.21696 46.2655 8.50287 46.2655 8.90868V21.8022C46.2655 23.3517 45.9704 24.5968 45.3801 25.5375C44.7898 26.4598 43.9874 27.1331 42.9729 27.5573C41.9769 27.9631 40.8609 28.166 39.625 28.166ZM51.0729 28C50.6855 28 50.3259 27.9078 49.9938 27.7233C49.6618 27.5204 49.4958 27.2253 49.4958 26.8379V8.90868C49.4958 8.50287 49.6803 8.21696 50.0492 8.05095C50.4365 7.86649 50.8516 7.77427 51.2943 7.77427C51.7554 7.77427 52.1704 7.86649 52.5393 8.05095C52.9083 8.21696 53.0927 8.50287 53.0927 8.90868V24.8458H59.8715C60.2404 24.8458 60.5079 25.0118 60.6739 25.3438C60.8399 25.6574 60.9229 26.0171 60.9229 26.4229C60.9229 26.8103 60.8399 27.1699 60.6739 27.502C60.5079 27.834 60.2404 28 59.8715 28H51.0729Z" fill="#2A9D8F"/>
<path d="M1.52125 41C1.32588 41 1.17936 40.9512 1.08167 40.8535C0.993758 40.7558 0.9498 40.6288 0.9498 40.4725C0.9498 40.2674 1.01818 40.0476 1.15494 39.8131L5.50677 31.9593H1.79965C1.61405 31.9593 1.46753 31.8763 1.36007 31.7102C1.26239 31.5442 1.21355 31.3488 1.21355 31.1241C1.21355 30.919 1.2575 30.7285 1.34542 30.5527C1.4431 30.3768 1.59452 30.2889 1.79965 30.2889H7.36765C7.56302 30.2889 7.70466 30.3378 7.79258 30.4355C7.89026 30.5331 7.9391 30.6552 7.9391 30.8018C7.9391 31.0069 7.86584 31.2365 7.71931 31.4904L3.38214 39.3296H7.60209C7.79746 39.3296 7.94399 39.4224 8.04167 39.608C8.14912 39.7838 8.20285 39.9694 8.20285 40.1648C8.20285 40.3602 8.14912 40.5507 8.04167 40.7363C7.94399 40.9121 7.79746 41 7.60209 41H1.52125ZM10.2034 41C9.96895 41 9.74916 40.9512 9.54402 40.8535C9.34865 40.746 9.25097 40.5897 9.25097 40.3846V30.8897C9.25097 30.6748 9.34865 30.5234 9.54402 30.4355C9.74916 30.3378 9.96895 30.2889 10.2034 30.2889C10.4476 30.2889 10.6674 30.3378 10.8628 30.4355C11.0581 30.5234 11.1558 30.6748 11.1558 30.8897V40.3846C11.1558 40.5897 11.0581 40.746 10.8628 40.8535C10.6674 40.9512 10.4476 41 10.2034 41ZM15.6978 41.0879C15.0335 41.0879 14.4328 40.9707 13.8955 40.7363C13.368 40.5018 12.9529 40.1648 12.65 39.7252C12.3472 39.2856 12.1958 38.7679 12.1958 38.172C12.1958 37.8008 12.274 37.5566 12.4302 37.4394C12.5963 37.3124 12.8405 37.2489 13.1629 37.2489C13.4071 37.2489 13.622 37.2929 13.8076 37.3808C13.9932 37.4589 14.0909 37.6152 14.1006 37.8497C14.1202 38.0841 14.169 38.3235 14.2472 38.5677C14.3351 38.8119 14.4865 39.017 14.7014 39.1831C14.9163 39.3394 15.224 39.4175 15.6245 39.4175C16.1227 39.4175 16.5037 39.2808 16.7674 39.0072C17.0409 38.724 17.1777 38.2941 17.1777 37.7178V31.9593H15.6685C15.4829 31.9593 15.3364 31.8763 15.2289 31.7102C15.1312 31.5442 15.0824 31.3439 15.0824 31.1095C15.0824 30.9141 15.1263 30.7285 15.2142 30.5527C15.3119 30.3768 15.4633 30.2889 15.6685 30.2889H18.2473C18.4525 30.2889 18.643 30.3427 18.8188 30.4501C18.9946 30.5478 19.0825 30.6992 19.0825 30.9043V37.7178C19.0825 38.5384 18.9262 39.1977 18.6137 39.6959C18.3108 40.1843 17.9054 40.5409 17.3975 40.7656C16.8895 40.9805 16.323 41.0879 15.6978 41.0879ZM21.6337 41C21.4286 41 21.2381 40.9512 21.0622 40.8535C20.8864 40.746 20.7985 40.5897 20.7985 40.3846V30.8897C20.7985 30.6748 20.8962 30.5234 21.0916 30.4355C21.2967 30.3378 21.5165 30.2889 21.7509 30.2889C21.9951 30.2889 22.2149 30.3378 22.4103 30.4355C22.6057 30.5234 22.7033 30.6748 22.7033 30.8897V39.3296H26.2932C26.4886 39.3296 26.6302 39.4175 26.7182 39.5933C26.8061 39.7594 26.85 39.9499 26.85 40.1648C26.85 40.3699 26.8061 40.5604 26.7182 40.7363C26.6302 40.9121 26.4886 41 26.2932 41H21.6337ZM28.834 41C28.5995 41 28.3797 40.9512 28.1746 40.8535C27.9792 40.746 27.8816 40.5897 27.8816 40.3846V31.2414C27.8816 30.8897 27.9792 30.6455 28.1746 30.5087C28.3797 30.3622 28.5995 30.2889 28.834 30.2889C29.0684 30.2889 29.2638 30.3134 29.4201 30.3622C29.5861 30.411 29.7376 30.5087 29.8743 30.6552C30.0208 30.8018 30.1722 31.0167 30.3285 31.3L32.1308 34.5821L33.9184 31.3C34.0943 31.0167 34.2457 30.8018 34.3727 30.6552C34.5094 30.5087 34.6608 30.411 34.8269 30.3622C34.993 30.3134 35.1883 30.2889 35.413 30.2889C35.6572 30.2889 35.877 30.3622 36.0724 30.5087C36.2677 30.6455 36.3654 30.8897 36.3654 31.2414V40.3846C36.3654 40.5897 36.2629 40.746 36.0577 40.8535C35.8624 40.9512 35.6474 41 35.413 41C35.1786 41 34.9588 40.9512 34.7536 40.8535C34.5583 40.746 34.4606 40.5897 34.4606 40.3846V34.0986L32.7609 37.1464C32.673 37.2831 32.5704 37.3857 32.4532 37.4541C32.336 37.5127 32.2187 37.542 32.1015 37.542C31.9941 37.542 31.8817 37.5127 31.7645 37.4541C31.657 37.3955 31.5594 37.2929 31.4714 37.1464L29.7864 33.996V40.3846C29.7864 40.5897 29.6887 40.746 29.4933 40.8535C29.298 40.9512 29.0782 41 28.834 41ZM38.5812 41C38.4053 41 38.2246 40.9658 38.039 40.8974C37.8534 40.8291 37.6971 40.7363 37.5701 40.619C37.4432 40.5018 37.3797 40.3651 37.3797 40.2088C37.3797 40.1795 37.3845 40.1306 37.3943 40.0622L40.2223 30.8457C40.2906 30.6308 40.4421 30.4696 40.6765 30.3622C40.9207 30.2547 41.1796 30.201 41.4531 30.201C41.7364 30.201 41.9952 30.2547 42.2297 30.3622C42.4641 30.4696 42.6155 30.6308 42.6839 30.8457L45.5119 40.0622C45.5314 40.1306 45.5412 40.1795 45.5412 40.2088C45.5412 40.3553 45.4728 40.492 45.336 40.619C45.209 40.7363 45.0528 40.8291 44.8672 40.8974C44.6816 40.9658 44.5008 41 44.325 41C44.1687 41 44.032 40.9756 43.9147 40.9267C43.8073 40.8681 43.734 40.7656 43.6949 40.619L43.1381 38.6702H39.768L39.2259 40.619C39.1868 40.7656 39.1087 40.8681 38.9915 40.9267C38.8742 40.9756 38.7375 41 38.5812 41ZM40.1783 37.1757H42.7279L41.4531 32.6773L40.1783 37.1757ZM47.4932 41C47.2587 41 47.0389 40.9512 46.8338 40.8535C46.6384 40.746 46.5408 40.5897 46.5408 40.3846V30.8897C46.5408 30.6846 46.6384 30.5331 46.8338 30.4355C47.0389 30.3378 47.2587 30.2889 47.4932 30.2889C47.7276 30.2889 47.9181 30.3134 48.0646 30.3622C48.2209 30.411 48.3626 30.5087 48.4896 30.6552C48.6263 30.792 48.768 31.0069 48.9145 31.3L51.7424 36.7654V30.8897C51.7424 30.6748 51.8401 30.5234 52.0355 30.4355C52.2406 30.3378 52.4604 30.2889 52.6949 30.2889C52.9391 30.2889 53.1589 30.3378 53.3542 30.4355C53.5496 30.5234 53.6473 30.6748 53.6473 30.8897V40.3846C53.6473 40.5897 53.5496 40.746 53.3542 40.8535C53.1589 40.9512 52.9391 41 52.6949 41C52.4702 41 52.2602 40.956 52.0648 40.8681C51.8792 40.7802 51.7278 40.6239 51.6106 40.3992L48.4456 34.5089V40.3846C48.4456 40.5897 48.3479 40.746 48.1525 40.8535C47.9572 40.9512 47.7374 41 47.4932 41ZM58.284 41.1319C57.6491 41.1319 57.0728 41.0391 56.555 40.8535C56.0471 40.6679 55.6417 40.4383 55.3389 40.1648C55.0458 39.8815 54.8993 39.5982 54.8993 39.3149C54.8993 39.1782 54.9335 39.0317 55.0019 38.8754C55.08 38.7093 55.1826 38.5725 55.3096 38.4651C55.4365 38.3479 55.5782 38.2893 55.7345 38.2893C55.8908 38.2893 56.0373 38.3479 56.1741 38.4651C56.3108 38.5725 56.4671 38.7044 56.6429 38.8607C56.8188 39.0072 57.0337 39.1391 57.2877 39.2563C57.5416 39.3638 57.8542 39.4175 58.2254 39.4175C58.5185 39.4175 58.7871 39.3736 59.0313 39.2856C59.2853 39.188 59.4856 39.0463 59.6321 38.8607C59.7884 38.6751 59.8665 38.4358 59.8665 38.1427C59.8665 37.8301 59.7835 37.5664 59.6174 37.3515C59.4514 37.1366 59.2267 36.951 58.9434 36.7947C58.6601 36.6384 58.3524 36.487 58.0203 36.3405C57.6882 36.1939 57.3512 36.0376 57.0093 35.8716C56.6771 35.7055 56.3694 35.5053 56.0861 35.2708C55.8126 35.0364 55.588 34.7482 55.4121 34.4063C55.2461 34.0644 55.163 33.6444 55.163 33.1462C55.163 32.5992 55.2656 32.14 55.4707 31.7688C55.6856 31.3976 55.964 31.0997 56.3059 30.875C56.6576 30.6406 57.0435 30.4745 57.4635 30.3768C57.8835 30.2694 58.3036 30.2157 58.7236 30.2157C58.9483 30.2157 59.212 30.2352 59.5149 30.2743C59.8275 30.3036 60.1352 30.3622 60.438 30.4501C60.7506 30.538 61.0045 30.6601 61.1999 30.8164C61.4051 30.963 61.5076 31.1583 61.5076 31.4025C61.5076 31.51 61.4783 31.6419 61.4197 31.7982C61.3709 31.9544 61.2878 32.0961 61.1706 32.2231C61.0632 32.3501 60.9215 32.4136 60.7457 32.4136C60.5894 32.4136 60.4331 32.3696 60.2768 32.2817C60.1303 32.184 59.9349 32.0912 59.6907 32.0033C59.4563 31.9056 59.1339 31.8568 58.7236 31.8568C58.3817 31.8568 58.0838 31.9007 57.8298 31.9886C57.5758 32.0766 57.3853 32.2035 57.2584 32.3696C57.1314 32.5259 57.0679 32.7262 57.0679 32.9704C57.0679 33.2243 57.1509 33.4392 57.317 33.6151C57.4928 33.7909 57.7175 33.9472 57.991 34.084C58.2743 34.2207 58.582 34.3575 58.9141 34.4942C59.2462 34.631 59.5784 34.7922 59.9105 34.9778C60.2524 35.1536 60.565 35.3685 60.8483 35.6225C61.1315 35.8765 61.3562 36.1939 61.5223 36.5749C61.6883 36.9461 61.7714 37.4052 61.7714 37.9523C61.7714 38.6458 61.62 39.2319 61.3171 39.7106C61.0143 40.1795 60.5992 40.536 60.0717 40.7802C59.5539 41.0147 58.9581 41.1319 58.284 41.1319Z" fill="#264653"/>
</svg>
